<svg width="15" height="13" viewBox="0 0 15 13" fill="none" xmlns="http://www.w3.org/2000/svg">
<path d="M6.3445 4.05487C6.21981 4.05449 6.09627 4.07881 5.98103 4.12643C5.86573 4.17407 5.76101 4.24409 5.67293 4.33244L5.74801 4.40729L5.67305 4.33233C5.49345 4.51193 5.39447 4.7504 5.39447 5.00417L5.39447 8.24734L5.39447 8.24751C5.39471 8.39445 5.42893 8.53935 5.49443 8.67088L6.3445 4.05487ZM5.72135 8.96422C5.81558 9.04596 5.9251 9.10819 6.04355 9.14731L5.49447 8.67096C5.54995 8.78276 5.62706 8.88244 5.72135 8.96422ZM6.16907 5.00417L6.16907 5.00374C6.16898 4.9808 6.17343 4.95807 6.18218 4.93686C6.19093 4.91565 6.20379 4.89639 6.22003 4.88019C6.23627 4.86398 6.25556 4.85115 6.27678 4.84245C6.29801 4.83375 6.32075 4.82934 6.34369 4.82947L6.34433 4.72345L6.34434 4.82948C6.37149 4.82947 6.39828 4.8357 6.42265 4.84768C6.42273 4.84772 6.4228 4.84775 6.42288 4.84779L9.66413 6.46841C9.66425 6.46848 9.66437 6.46854 9.66449 6.4686C9.69327 6.48339 9.71742 6.50581 9.73431 6.53341C9.75127 6.56112 9.76024 6.59298 9.76024 6.62547C9.76024 6.65796 9.75127 6.68982 9.73431 6.71754C9.71742 6.74513 9.69327 6.76755 9.66451 6.78234C9.66438 6.7824 9.66426 6.78247 9.66413 6.78253L6.42249 8.40335C6.39579 8.41665 6.36613 8.42292 6.33632 8.42156C6.30651 8.42019 6.27755 8.41124 6.25217 8.39555C6.22679 8.37986 6.20583 8.35795 6.19129 8.33189C6.17675 8.30584 6.1691 8.2765 6.16907 8.24666L6.16907 5.00417Z" fill="#B9BABF" stroke="#B9BABF" stroke-width="0.212044"/>
<path d="M3.53141 12.3572H3.53152H11.9699C13.4242 12.3572 14.6075 11.174 14.6075 9.7197V3.53152C14.6075 2.07726 13.4242 0.893978 11.9699 0.893978H3.53152C2.07726 0.893978 0.893978 2.07726 0.893978 3.53152L0.893978 9.7197L0.893978 9.71981C0.894754 10.4191 1.17287 11.0895 1.66732 11.5839C2.16177 12.0783 2.83216 12.3565 3.53141 12.3572ZM1.66858 3.53152C1.66858 2.50434 2.50434 1.66858 3.53152 1.66858H11.9699C12.9971 1.66858 13.8329 2.50434 13.8329 3.53152V9.7197C13.8329 10.7469 12.9971 11.5826 11.9699 11.5826H3.53152C2.50434 11.5826 1.66858 10.7469 1.66858 9.7197V3.53152Z" fill="#B9BABF" stroke="#B9BABF" stroke-width="0.212044"/>
</svg>
