<svg width="29" height="29" viewBox="0 0 29 29" fill="none" xmlns="http://www.w3.org/2000/svg">
<rect width="29" height="29" fill="#199FF1"/>
<path d="M16.7897 8.97609V8.97363H17.4284L17.6618 9.02024C17.8173 9.0505 17.9586 9.09016 18.0855 9.13922C18.2124 9.18829 18.3353 9.24553 18.454 9.31095C18.5727 9.37636 18.6804 9.44302 18.7771 9.51088C18.8729 9.57794 18.9588 9.64908 19.035 9.72431C19.1103 9.80036 19.2278 9.81999 19.3875 9.78319C19.5472 9.74639 19.7191 9.69528 19.9034 9.62986C20.0876 9.56445 20.2698 9.49085 20.45 9.40908C20.6301 9.3273 20.7399 9.27538 20.7792 9.2533C20.8177 9.23041 20.8381 9.21814 20.8406 9.2165L20.843 9.21282L20.8553 9.20669L20.8676 9.20055L20.8799 9.19442L20.8922 9.18829L20.8946 9.18461L20.8983 9.18215L20.902 9.1797L20.9045 9.17602L20.9167 9.17234L20.929 9.16989L20.9266 9.18829L20.9229 9.20669L20.9167 9.22509L20.9106 9.24348L20.9045 9.25575L20.8983 9.26802L20.8922 9.28642C20.8881 9.29868 20.884 9.31503 20.8799 9.33548C20.8758 9.35593 20.8369 9.43769 20.7632 9.5808C20.6895 9.72391 20.5974 9.86905 20.4868 10.0162C20.3763 10.1634 20.2772 10.2746 20.1896 10.3499C20.1012 10.4259 20.0426 10.4791 20.0139 10.5093C19.9853 10.5404 19.9505 10.569 19.9095 10.5952L19.8481 10.6357L19.8358 10.6418L19.8236 10.6479L19.8211 10.6516L19.8174 10.6541L19.8137 10.6565L19.8113 10.6602L19.799 10.6663L19.7867 10.6725L19.7843 10.6762L19.7806 10.6786L19.7769 10.6811L19.7744 10.6847L19.772 10.6884L19.7683 10.6909L19.7646 10.6933L19.7621 10.697H19.8236L20.1675 10.6234C20.3968 10.5743 20.6158 10.5151 20.8246 10.4456L21.1563 10.3352L21.1931 10.3229L21.2115 10.3168L21.2238 10.3106L21.2361 10.3045L21.2484 10.2984L21.2607 10.2922L21.2852 10.2885L21.3098 10.2861V10.3106L21.3036 10.3131L21.2975 10.3168L21.2951 10.3204L21.2914 10.3229L21.2877 10.3253L21.2852 10.329L21.2828 10.3327L21.2791 10.3352L21.2754 10.3376L21.2729 10.3413L21.2705 10.345L21.2668 10.3474L21.2607 10.3597L21.2545 10.372L21.2508 10.3744C21.2492 10.3769 21.1972 10.4464 21.0948 10.5829C20.9925 10.7203 20.9372 10.7898 20.929 10.7915C20.9208 10.7939 20.9094 10.8062 20.8946 10.8282C20.8807 10.8511 20.7939 10.9423 20.6342 11.1018C20.4745 11.2612 20.3182 11.4031 20.165 11.5274C20.0111 11.6525 19.9333 11.8063 19.9317 11.9886C19.9292 12.1701 19.9198 12.3754 19.9034 12.6044C19.887 12.8333 19.8563 13.0807 19.8113 13.3465C19.7662 13.6122 19.6966 13.9127 19.6025 14.248C19.5083 14.5833 19.3936 14.9104 19.2585 15.2293C19.1234 15.5482 18.9822 15.8344 18.8348 16.0879C18.6874 16.3414 18.5523 16.5561 18.4294 16.7319C18.3066 16.9077 18.1817 17.0733 18.0548 17.2286C17.9279 17.384 17.7674 17.559 17.5733 17.7536C17.3784 17.9474 17.272 18.0537 17.254 18.0725C17.2351 18.0905 17.1549 18.1576 17.0132 18.2737C16.8724 18.3906 16.7209 18.5076 16.5587 18.6245C16.3974 18.7406 16.2492 18.8375 16.1141 18.9152C15.979 18.9929 15.816 19.0816 15.6252 19.1814C15.4353 19.282 15.2297 19.3752 15.0086 19.461C14.7875 19.5469 14.5542 19.6266 14.3085 19.7002C14.0628 19.7738 13.8254 19.8311 13.5961 19.872C13.3668 19.9128 13.1068 19.9476 12.8161 19.9762L12.3801 20.0192V20.0253H11.5817V20.0192L11.4773 20.013C11.4077 20.0089 11.3504 20.0048 11.3053 20.0008C11.2603 19.9967 11.0904 19.9742 10.7956 19.9333C10.5008 19.8924 10.2695 19.8515 10.1016 19.8106C9.93373 19.7697 9.68397 19.6921 9.35233 19.5776C9.02069 19.4631 8.73695 19.3474 8.50112 19.2304C8.26611 19.1143 8.11871 19.0407 8.05893 19.0097C7.99998 18.9794 7.93365 18.9418 7.85995 18.8968L7.7494 18.8294L7.74696 18.8257L7.74326 18.8232L7.73958 18.8208L7.73712 18.8171L7.72484 18.811L7.71255 18.8048L7.71011 18.8011L7.70641 18.7987L7.70273 18.7962L7.70027 18.7926L7.69783 18.7889L7.69413 18.7864H7.68799V18.7619L7.70027 18.7643L7.71255 18.768L7.76783 18.7742C7.80468 18.7782 7.90499 18.7844 8.06876 18.7926C8.23254 18.8007 8.40654 18.8007 8.59079 18.7926C8.77503 18.7844 8.96338 18.766 9.1558 18.7374C9.34824 18.7087 9.57547 18.6597 9.83751 18.5902C10.0996 18.5207 10.3403 18.4381 10.5598 18.3424C10.7784 18.2459 10.934 18.1739 11.0265 18.1265C11.1182 18.0799 11.2582 17.9932 11.4466 17.8665L11.7291 17.6763L11.7315 17.6727L11.7352 17.6702L11.7389 17.6678L11.7414 17.6641L11.7438 17.6604L11.7475 17.6579L11.7512 17.6555L11.7536 17.6518L11.7659 17.6481L11.7782 17.6457L11.7807 17.6334L11.7844 17.6212L11.7881 17.6187L11.7905 17.615L11.6922 17.6089C11.6267 17.6048 11.5633 17.6007 11.5018 17.5966C11.4404 17.5925 11.3442 17.5741 11.2132 17.5414C11.0822 17.5087 10.9409 17.4596 10.7894 17.3942C10.6379 17.3288 10.4906 17.2511 10.3472 17.1612C10.204 17.0712 10.1004 16.9964 10.0365 16.9367C9.97344 16.8778 9.89155 16.7944 9.79083 16.6865C9.69093 16.5777 9.60413 16.4661 9.53043 16.3516C9.45673 16.2371 9.38632 16.1051 9.31918 15.9554L9.21722 15.7322L9.21108 15.7138L9.20493 15.6954L9.20125 15.6831L9.19879 15.6709L9.21722 15.6733L9.23564 15.677L9.37075 15.6954C9.46084 15.7077 9.60209 15.7117 9.79452 15.7077C9.98695 15.7036 10.12 15.6954 10.1937 15.6831C10.2674 15.6709 10.3125 15.6627 10.3288 15.6586L10.3534 15.6525L10.3841 15.6463L10.4148 15.6402L10.4173 15.6365L10.4209 15.6341L10.4246 15.6316L10.4271 15.6279L10.4025 15.6218L10.378 15.6157L10.3534 15.6095L10.3288 15.6034L10.3043 15.5973C10.2879 15.5932 10.2592 15.585 10.2183 15.5727C10.1773 15.5605 10.0668 15.5155 9.88664 15.4378C9.7065 15.3601 9.56319 15.2845 9.45673 15.2109C9.35001 15.1371 9.24826 15.0564 9.15212 14.9692C9.05631 14.8809 8.95109 14.7673 8.83645 14.6283C8.72181 14.4892 8.61945 14.3277 8.52937 14.1437C8.4393 13.9598 8.37174 13.7839 8.3267 13.6163C8.28184 13.4497 8.25224 13.2793 8.23828 13.1073L8.21616 12.8497L8.22844 12.8521L8.24072 12.8558L8.253 12.8619L8.26529 12.8681L8.27757 12.8742L8.28985 12.8803L8.48024 12.9662C8.60717 13.0235 8.7648 13.0725 8.95313 13.1134C9.14148 13.1543 9.25407 13.1768 9.29091 13.1809L9.34619 13.187H9.45673L9.45429 13.1833L9.45059 13.1809L9.44691 13.1784L9.44445 13.1747L9.44201 13.1711L9.43831 13.1686L9.43463 13.1661L9.43217 13.1625L9.41989 13.1563L9.4076 13.1502L9.40516 13.1465L9.40146 13.1441L9.39778 13.1416L9.39532 13.1379L9.38304 13.1318L9.37075 13.1257L9.36831 13.122C9.36585 13.1203 9.33064 13.0942 9.26266 13.0435C9.19551 12.992 9.12509 12.9253 9.0514 12.8436C8.9777 12.7618 8.904 12.6759 8.8303 12.586C8.75647 12.4958 8.69071 12.3994 8.63378 12.2977C8.57646 12.1955 8.51586 12.0655 8.45199 11.9077C8.38894 11.7507 8.34104 11.5924 8.30828 11.433C8.27553 11.2735 8.25711 11.1161 8.253 10.9607C8.24891 10.8053 8.253 10.6725 8.26529 10.5621C8.27757 10.4517 8.30214 10.327 8.33899 10.188C8.37583 10.049 8.42907 9.90176 8.49866 9.74639L8.60307 9.51334L8.60921 9.49494L8.61535 9.47654L8.61905 9.47408L8.62149 9.47041L8.62395 9.46673L8.62763 9.46427L8.63133 9.46673L8.63378 9.47041L8.63623 9.47408L8.63992 9.47654L8.64361 9.47899L8.64606 9.48267L8.64852 9.48635L8.6522 9.4888L8.65834 9.50107L8.66448 9.51334L8.66818 9.51579L8.67063 9.51947L8.83645 9.70346C8.94699 9.82612 9.07801 9.96309 9.2295 10.1144C9.381 10.2656 9.46493 10.3441 9.4813 10.3499C9.49769 10.3564 9.51815 10.3752 9.54272 10.4063C9.56728 10.4366 9.64917 10.5089 9.78837 10.6234C9.92759 10.7379 10.1098 10.8708 10.335 11.0221C10.5602 11.1733 10.8099 11.3226 11.0842 11.4698C11.3586 11.617 11.6533 11.7498 11.9686 11.8684C12.2839 11.987 12.505 12.0647 12.6319 12.1015C12.7588 12.1383 12.9758 12.1853 13.2829 12.2425C13.59 12.2998 13.8213 12.3366 13.9769 12.3529C14.1325 12.3693 14.2389 12.3787 14.2962 12.3811L14.3822 12.3836L14.3798 12.3652L14.3761 12.3468L14.3515 12.1935C14.3351 12.0912 14.3269 11.9481 14.3269 11.7641C14.3269 11.5802 14.3413 11.4105 14.3699 11.2551C14.3986 11.0997 14.4416 10.9423 14.4989 10.7829C14.5562 10.6234 14.6123 10.4954 14.6672 10.3989C14.7229 10.3033 14.7957 10.1941 14.8858 10.0714C14.9759 9.94878 15.0926 9.82203 15.2359 9.69119C15.3792 9.56035 15.5429 9.44382 15.7272 9.34161C15.9114 9.2394 16.0814 9.16171 16.2369 9.10856C16.3925 9.05541 16.5235 9.02065 16.63 9.0043C16.7364 8.98795 16.7897 8.97854 16.7897 8.97609V8.97609Z" fill="white"/>
</svg>
