<svg width="29" height="29" viewBox="0 0 29 29" fill="none" xmlns="http://www.w3.org/2000/svg">
<g clip-path="url(#clip0)">
<rect width="29" height="29" fill="white"/>
<rect width="28.9995" height="28.9995" fill="url(#paint0_radial)"/>
<path d="M14.5049 -3C7.8252 -3 5.87164 -2.99311 5.4919 -2.9616C4.1211 -2.84762 3.26811 -2.63172 2.33883 -2.16892C1.62267 -1.81319 1.05786 -1.40085 0.500436 -0.822834C-0.51474 0.231284 -1.13 1.52813 -1.35272 3.06967C-1.46101 3.81804 -1.49251 3.97067 -1.49891 7.79327C-1.50137 9.06746 -1.49891 10.7444 -1.49891 12.9937C-1.49891 19.6699 -1.49152 21.6221 -1.45953 22.0012C-1.34878 23.3355 -1.1396 24.1749 -0.69661 25.0932C0.149985 26.8509 1.76688 28.1703 3.67172 28.6627C4.33128 28.8326 5.05974 28.9261 5.99493 28.9704C6.39116 28.9876 10.4297 29 14.4707 29C18.5117 29 22.5528 28.995 22.9391 28.9753C24.022 28.9244 24.6508 28.8399 25.346 28.6602C27.2632 28.1654 28.8505 26.8656 29.7144 25.0833C30.1487 24.1872 30.369 23.3158 30.4687 22.0512C30.4903 21.7755 30.4994 17.3795 30.4994 12.9895C30.4994 8.59875 30.4896 4.21094 30.4679 3.93522C30.367 2.65019 30.1468 1.78612 29.6984 0.872814C29.3304 0.125183 28.9219 -0.433141 28.3288 -1.00402C27.2703 -2.0153 25.9758 -2.63074 24.4332 -2.85328C23.6858 -2.96135 23.5369 -2.99335 19.7125 -3H14.5049Z" fill="url(#paint1_radial)"/>
<path fill-rule="evenodd" clip-rule="evenodd" d="M6.47388 14.4995C6.47388 11.2935 6.47388 9.69048 7.23784 8.53588C7.57899 8.02029 8.02054 7.57875 8.53612 7.2376C9.69072 6.47363 11.2937 6.47363 14.4997 6.47363C17.7057 6.47363 19.3087 6.47363 20.4633 7.2376C20.9789 7.57875 21.4205 8.02029 21.7616 8.53588C22.5256 9.69048 22.5256 11.2935 22.5256 14.4995C22.5256 17.7055 22.5256 19.3085 21.7616 20.4631C21.4205 20.9787 20.9789 21.4202 20.4633 21.7614C19.3087 22.5253 17.7057 22.5253 14.4997 22.5253C11.2937 22.5253 9.69072 22.5253 8.53612 21.7614C8.02054 21.4202 7.57899 20.9787 7.23784 20.4631C6.47388 19.3085 6.47388 17.7055 6.47388 14.4995ZM18.6513 14.4997C18.6513 16.7945 16.791 18.6548 14.4962 18.6548C12.2014 18.6548 10.3411 16.7945 10.3411 14.4997C10.3411 12.2049 12.2014 10.3446 14.4962 10.3446C16.791 10.3446 18.6513 12.2049 18.6513 14.4997ZM14.4962 17.249C16.0146 17.249 17.2455 16.0181 17.2455 14.4997C17.2455 12.9813 16.0146 11.7504 14.4962 11.7504C12.9778 11.7504 11.7469 12.9813 11.7469 14.4997C11.7469 16.0181 12.9778 17.249 14.4962 17.249ZM18.8159 11.1116C19.3552 11.1116 19.7923 10.6745 19.7923 10.1353C19.7923 9.59612 19.3552 9.159 18.8159 9.159C18.2767 9.159 17.8396 9.59612 17.8396 10.1353C17.8396 10.6745 18.2767 11.1116 18.8159 11.1116Z" fill="white"/>
</g>
<defs>
<radialGradient id="paint0_radial" cx="0" cy="0" r="1" gradientUnits="userSpaceOnUse" gradientTransform="translate(1.87682 28.3642) scale(36.8186)">
<stop offset="0.09" stop-color="#FF881B"/>
<stop offset="0.78" stop-color="#EE2584"/>
</radialGradient>
<radialGradient id="paint1_radial" cx="0" cy="0" r="1" gradientUnits="userSpaceOnUse" gradientTransform="translate(-6.86007 -0.694777) rotate(78.6808) scale(14.1764 58.4349)">
<stop stop-color="#3771C8"/>
<stop offset="0.128" stop-color="#3771C8"/>
<stop offset="1" stop-color="#6600FF" stop-opacity="0"/>
</radialGradient>
<clipPath id="clip0">
<rect width="29" height="29" fill="white"/>
</clipPath>
</defs>
</svg>
