<svg width="29" height="29" viewBox="0 0 29 29" fill="none" xmlns="http://www.w3.org/2000/svg">
<rect width="29" height="29" fill="#FE2C55"/>
<path fill-rule="evenodd" clip-rule="evenodd" d="M16.6454 11.5294C17.5751 12.1935 18.7136 12.5842 19.9433 12.5842V10.7224C19.2569 10.5763 18.6493 10.2178 18.1924 9.71908C17.4104 9.23135 16.8469 8.42668 16.6817 7.48486H14.9578V16.9319C14.9539 18.0332 14.0596 18.9249 12.9569 18.9249C12.307 18.9249 11.7297 18.6153 11.3641 18.1358C10.7112 17.8064 10.2635 17.1303 10.2635 16.3494C10.2635 15.2449 11.1592 14.3495 12.2643 14.3495C12.476 14.3495 12.6801 14.3825 12.8715 14.4432V12.5611C10.4983 12.6101 8.5896 14.5483 8.5896 16.932C8.5896 18.1218 9.06493 19.2006 9.8363 19.9887C10.5323 20.4558 11.3701 20.7281 12.2714 20.7281C14.6871 20.7281 16.6454 18.7708 16.6454 16.3562V11.5294Z" fill="white"/>
<path fill-rule="evenodd" clip-rule="evenodd" d="M19.9426 10.723V10.2195C19.3236 10.2205 18.7169 10.0472 18.1917 9.71959C18.6566 10.2283 19.2687 10.5791 19.9426 10.723V10.723ZM16.6811 7.48546C16.6653 7.39546 16.6532 7.30486 16.6448 7.21387V6.90967H14.2645V16.3568C14.2607 17.458 13.3665 18.3497 12.2637 18.3497C11.9399 18.3497 11.6342 18.2729 11.3635 18.1364C11.7291 18.6159 12.3064 18.9255 12.9562 18.9255C14.0589 18.9255 14.9533 18.0338 14.9572 16.9325V7.48546H16.6811ZM12.871 12.5617V12.0257C12.6721 11.9985 12.4716 11.985 12.2708 11.9851C9.85486 11.9851 7.89648 13.9424 7.89648 16.3568C7.89648 17.8705 8.66616 19.2045 9.83575 19.9892C9.06438 19.2011 8.58905 18.1223 8.58905 16.9325C8.58905 14.5489 10.4977 12.6107 12.871 12.5617V12.5617Z" fill="white"/>
</svg>
