<svg width="29" height="29" viewBox="0 0 29 29" fill="none" xmlns="http://www.w3.org/2000/svg">
<rect width="29" height="29" fill="#0B71D6"/>
<path d="M7.74854 9.56517C7.74854 9.1323 7.90056 8.77518 8.20458 8.49382C8.50861 8.21246 8.90386 8.07178 9.39031 8.07178C9.86808 8.07178 10.2546 8.21029 10.55 8.48733C10.854 8.77302 11.006 9.14528 11.006 9.60413C11.006 10.0197 10.8584 10.366 10.563 10.643C10.259 10.9287 9.85938 11.0716 9.36425 11.0716H9.35122C8.87345 11.0716 8.4869 10.9287 8.19155 10.643C7.8962 10.3573 7.74854 9.99804 7.74854 9.56517ZM7.91792 20.928V12.2533H10.8106V20.928H7.91792ZM12.4133 20.928H15.3059V16.0842C15.3059 15.7812 15.3406 15.5474 15.4101 15.3829C15.5317 15.0886 15.7163 14.8397 15.9639 14.6362C16.2115 14.4328 16.522 14.3311 16.8955 14.3311C17.8685 14.3311 18.3549 14.9847 18.3549 16.292V20.928H21.2475V15.9543C21.2475 14.673 20.9435 13.7012 20.3355 13.0389C19.7274 12.3767 18.9239 12.0455 17.9249 12.0455C16.8043 12.0455 15.9313 12.526 15.3059 13.487V13.5129H15.2929L15.3059 13.487V12.2533H12.4133C12.4306 12.5303 12.4393 13.3917 12.4393 14.8375C12.4393 16.2833 12.4306 18.3134 12.4133 20.928Z" fill="white"/>
</svg>
