<svg width="29" height="29" viewBox="0 0 29 29" fill="none" xmlns="http://www.w3.org/2000/svg">
<rect width="29" height="29" fill="#F63434"/>
<path d="M14.8619 20.3068L11.4824 20.2436C10.3882 20.2216 9.29125 20.2655 8.2185 20.0375C6.58659 19.6968 6.47098 18.0264 6.35001 16.6252C6.18332 14.6553 6.24785 12.6496 6.56241 10.6962C6.73999 9.60007 7.43885 8.94603 8.51961 8.87485C12.168 8.61656 15.8406 8.64717 19.4808 8.76767C19.8653 8.77872 20.2524 8.8391 20.6315 8.90783C22.5028 9.24303 22.5484 11.136 22.6697 12.7296C22.7907 14.3396 22.7396 15.9578 22.5084 17.5568C22.3229 18.8808 21.968 19.9911 20.4702 20.0982C18.5935 20.2384 16.7599 20.3512 14.878 20.3153C14.8781 20.3068 14.8673 20.3068 14.8619 20.3068ZM12.8751 16.9549C14.2893 16.1251 15.6765 15.3092 17.0827 14.4849C15.6658 13.6552 14.2812 12.8392 12.8751 12.015V16.9549Z" fill="white"/>
</svg>
