<svg width="19" height="20" viewBox="0 0 19 20" fill="none" xmlns="http://www.w3.org/2000/svg">
<path d="M17.9721 0.000401163C17.9351 0.00161441 17.8983 0.00487311 17.8618 0.0101622H11.4946C11.3622 0.00828905 11.2307 0.0327589 11.1078 0.0821495C10.9848 0.13154 10.873 0.204866 10.7787 0.297867C10.6843 0.390868 10.6094 0.501689 10.5583 0.623889C10.5072 0.746089 10.4808 0.877231 10.4808 1.00969C10.4808 1.14216 10.5072 1.2733 10.5583 1.3955C10.6094 1.5177 10.6843 1.62852 10.7787 1.72152C10.873 1.81452 10.9848 1.88785 11.1078 1.93724C11.2307 1.98663 11.3622 2.0111 11.4946 2.00923H15.5786L8.78885 8.79901C8.69292 8.89112 8.61634 9.00143 8.56357 9.12351C8.51081 9.24558 8.48294 9.37695 8.48159 9.50993C8.48023 9.64291 8.50543 9.77482 8.55569 9.89794C8.60596 10.0211 8.68028 10.1329 8.77432 10.2269C8.86836 10.321 8.98021 10.3953 9.10333 10.4456C9.22645 10.4958 9.35836 10.521 9.49134 10.5197C9.62432 10.5183 9.75569 10.4905 9.87776 10.4377C9.99983 10.3849 10.1102 10.3083 10.2023 10.2124L16.992 3.42263V7.50665C16.9902 7.6391 17.0146 7.7706 17.064 7.89351C17.1134 8.01642 17.1867 8.12829 17.2797 8.22262C17.3727 8.31694 17.4836 8.39184 17.6058 8.44297C17.728 8.49409 17.8591 8.52042 17.9916 8.52042C18.124 8.52042 18.2552 8.49409 18.3774 8.44297C18.4996 8.39184 18.6104 8.31694 18.7034 8.22262C18.7964 8.12829 18.8697 8.01642 18.9191 7.89351C18.9685 7.7706 18.993 7.6391 18.9911 7.50665V1.13268C19.0104 0.989074 18.9982 0.842988 18.9555 0.704546C18.9127 0.566104 18.8403 0.438616 18.7434 0.330914C18.6465 0.223211 18.5273 0.137869 18.3941 0.0807993C18.2609 0.0237296 18.1169 -0.00370332 17.9721 0.000401163V0.000401163ZM3.74824 1.50946C1.69055 1.50946 0 3.20001 0 5.2577V15.253C0 17.3107 1.69055 19.0013 3.74824 19.0013H13.7436C15.8013 19.0013 17.4918 17.3107 17.4918 15.253V10.5052C17.4937 10.3728 17.4692 10.2413 17.4198 10.1184C17.3704 9.99547 17.2971 9.88361 17.2041 9.78928C17.1111 9.69495 17.0003 9.62005 16.8781 9.56893C16.7559 9.51781 16.6247 9.49148 16.4923 9.49148C16.3598 9.49148 16.2287 9.51781 16.1065 9.56893C15.9843 9.62005 15.8735 9.69495 15.7804 9.78928C15.6874 9.88361 15.6141 9.99547 15.5647 10.1184C15.5153 10.2413 15.4909 10.3728 15.4927 10.5052V15.253C15.4927 16.2259 14.7165 17.0022 13.7436 17.0022H3.74824C2.77536 17.0022 1.99906 16.2259 1.99906 15.253V5.2577C1.99906 4.28482 2.77536 3.50852 3.74824 3.50852H8.49602C8.62847 3.5104 8.75997 3.48593 8.88288 3.43654C9.00579 3.38715 9.11766 3.31382 9.21199 3.22082C9.30631 3.12782 9.38121 3.017 9.43234 2.8948C9.48346 2.7726 9.50979 2.64145 9.50979 2.50899C9.50979 2.37653 9.48346 2.24539 9.43234 2.12319C9.38121 2.00099 9.30631 1.89017 9.21199 1.79717C9.11766 1.70416 9.00579 1.63084 8.88288 1.58145C8.75997 1.53206 8.62847 1.50759 8.49602 1.50946H3.74824Z" fill="white"/>
</svg>
