<svg width="108" height="33" viewBox="0 0 108 33" fill="none" xmlns="http://www.w3.org/2000/svg">
<path d="M47.6927 27.1443C45.796 27.1443 44.2031 26.7207 42.914 25.8736C41.6249 25.0265 40.7226 23.8848 40.207 22.4484L43.2455 20.6529C44.0005 22.6233 45.5105 23.6085 47.7756 23.6085C48.7884 23.6085 49.5711 23.3691 50.1235 22.8903C50.676 22.4116 50.9522 21.8591 50.9522 21.233C50.9522 20.6069 50.6484 20.1005 50.0407 19.7137C49.4514 19.327 48.3925 18.9127 46.864 18.4707C45.6671 18.1024 44.6542 17.7065 43.8255 17.2829C42.9969 16.841 42.3155 16.2517 41.7815 15.5151C41.2658 14.7785 41.008 13.8485 41.008 12.7252C41.008 11.5834 41.2935 10.589 41.8643 9.74192C42.4352 8.87641 43.1902 8.22267 44.1294 7.7807C45.087 7.32032 46.1274 7.09013 47.2508 7.09013C48.8161 7.09013 50.1696 7.46765 51.3113 8.22267C52.4715 8.95927 53.3646 9.99973 53.9907 11.344L50.897 13.1119C50.1788 11.4729 48.9634 10.6535 47.2508 10.6535C46.4773 10.6535 45.842 10.856 45.3448 11.2612C44.8476 11.6663 44.599 12.1451 44.599 12.6976C44.599 13.1211 44.7095 13.4802 44.9305 13.7748C45.1698 14.0695 45.5382 14.3365 46.0354 14.5759C46.551 14.8153 47.2968 15.0823 48.2728 15.377C49.5435 15.7821 50.6115 16.2056 51.477 16.6476C52.361 17.0896 53.0884 17.7065 53.6592 18.4983C54.2485 19.2718 54.5432 20.2478 54.5432 21.4263C54.5432 22.5865 54.2485 23.5993 53.6592 24.4648C53.07 25.3304 52.2505 25.9933 51.2008 26.4537C50.1696 26.9141 49.0002 27.1443 47.6927 27.1443ZM61.2449 22.0617C61.2449 22.6878 61.3922 23.1205 61.6869 23.3599C61.9815 23.5993 62.4511 23.719 63.0956 23.719C63.4824 23.719 63.9059 23.6914 64.3663 23.6362V26.7852C63.5008 26.8772 62.7826 26.9233 62.2117 26.9233C60.7385 26.9233 59.6336 26.5918 58.897 25.9289C58.1788 25.2475 57.8197 24.0321 57.8197 22.2826V16.0399H55.2232V12.9738H57.8197V9.57618L61.2449 8.41603V12.9738H64.311V16.0399H61.2449V22.0617ZM73.1542 27.1719C71.8467 27.1719 70.6313 26.8496 69.508 26.2051C68.4031 25.5421 67.5192 24.6582 66.8562 23.5533C66.2117 22.43 65.8894 21.2146 65.8894 19.9071C65.8894 18.5996 66.2117 17.3934 66.8562 16.2885C67.5192 15.1652 68.4031 14.2813 69.508 13.6367C70.6313 12.9738 71.8467 12.6423 73.1542 12.6423C74.4617 12.6423 75.6679 12.9738 76.7728 13.6367C77.8961 14.2813 78.78 15.1652 79.4246 16.2885C80.0875 17.3934 80.419 18.5996 80.419 19.9071C80.419 21.2146 80.0875 22.43 79.4246 23.5533C78.78 24.6582 77.8961 25.5421 76.7728 26.2051C75.6679 26.8496 74.4617 27.1719 73.1542 27.1719ZM73.1266 23.7467C73.8264 23.7467 74.4709 23.5809 75.0602 23.2494C75.6495 22.8996 76.1191 22.43 76.4689 21.8407C76.8188 21.2514 76.9938 20.6069 76.9938 19.9071C76.9938 19.2073 76.8188 18.5628 76.4689 17.9735C76.1191 17.3842 75.6495 16.9146 75.0602 16.5647C74.4709 16.2149 73.8264 16.0399 73.1266 16.0399C72.4268 16.0399 71.7823 16.2149 71.193 16.5647C70.6037 16.9146 70.1341 17.3842 69.7842 17.9735C69.4528 18.5628 69.287 19.2073 69.287 19.9071C69.287 20.6069 69.4528 21.2514 69.7842 21.8407C70.1341 22.43 70.6037 22.8996 71.193 23.2494C71.7823 23.5809 72.4268 23.7467 73.1266 23.7467ZM90.8093 12.6976L90.5606 15.9294C90.4502 15.8926 90.2568 15.8742 89.9806 15.8742C88.8388 15.8742 87.8904 16.2056 87.1354 16.8686C86.3988 17.5315 86.0305 18.4339 86.0305 19.5756V26.7852H82.6053V12.9738H86.0305V15.2941C86.3436 14.5575 86.8776 13.9406 87.6326 13.4434C88.3877 12.9462 89.2992 12.6976 90.3673 12.6976H90.8093ZM98.8078 12.6147C100.134 12.6147 101.321 12.9462 102.371 13.6091C103.439 14.2536 104.268 15.1284 104.857 16.2333C105.446 17.3382 105.741 18.5628 105.741 19.9071C105.741 20.3491 105.704 20.7542 105.631 21.1225H94.9682C95.2444 22.0985 95.7324 22.8627 96.4322 23.4152C97.132 23.9492 98.0251 24.2162 99.1116 24.2162C99.7746 24.2162 100.41 24.0689 101.018 23.7743C101.644 23.4796 102.113 23.1021 102.426 22.6417L105.051 24.1886C104.406 25.1462 103.568 25.8828 102.537 26.3984C101.524 26.8956 100.355 27.1443 99.0287 27.1443C97.5555 27.1443 96.2481 26.8312 95.1063 26.2051C93.9646 25.579 93.0806 24.7134 92.4545 23.6085C91.8468 22.5036 91.543 21.2606 91.543 19.8795C91.543 18.5167 91.8468 17.2829 92.4545 16.178C93.0806 15.0731 93.9462 14.2076 95.0511 13.5815C96.156 12.937 97.4082 12.6147 98.8078 12.6147ZM102.537 18.4431C102.39 17.5592 101.975 16.8686 101.294 16.3714C100.631 15.8558 99.793 15.5979 98.7801 15.5979C98.0804 15.5979 97.4358 15.7268 96.8465 15.9847C96.2757 16.2425 95.8153 16.5924 95.4654 17.0343C95.1155 17.4763 94.9314 17.9459 94.913 18.4431H102.537Z" fill="white"/>
<path fill-rule="evenodd" clip-rule="evenodd" d="M21.6703 31.0718H8.61065C3.8135 31.0718 0.133306 29.3391 1.17865 22.3653L2.39584 12.9142C3.04023 9.43453 5.25981 8.10278 7.20731 8.10278H23.131C25.1071 8.10278 27.1978 9.53477 27.9424 12.9142L29.1596 22.3653C30.0474 28.5515 26.4675 31.0718 21.6703 31.0718Z" fill="#F63434" stroke="#F63434" stroke-width="2" stroke-linecap="round" stroke-linejoin="round"/>
<path d="M21.8849 7.75902C21.8849 4.02615 18.8589 1.00006 15.126 1.00006V1.00006C13.3284 0.992444 11.6019 1.70118 10.3281 2.96956C9.0544 4.23794 8.33836 5.96146 8.33838 7.75902H8.33838" stroke="white" stroke-width="2" stroke-linecap="round" stroke-linejoin="round"/>
</svg>
