<svg width="142" height="32" viewBox="0 0 142 32" fill="none" xmlns="http://www.w3.org/2000/svg">
<path fill-rule="evenodd" clip-rule="evenodd" d="M44.1274 4.92541C43.6113 2.98959 42.0842 1.46265 40.1413 0.939284C36.6284 0 22.5334 0 22.5334 0C22.5334 0 8.44559 0 4.92541 0.939284C2.98978 1.45543 1.46265 2.98255 0.939284 4.92541C-8.83403e-08 8.43836 0 15.7726 0 15.7726C0 15.7726 -8.83403e-08 23.1069 0.939284 26.6199C1.45543 28.5557 2.98255 30.0827 4.92541 30.606C8.44559 31.5453 22.5334 31.5453 22.5334 31.5453C22.5334 31.5453 36.6284 31.5453 40.1413 30.606C42.0771 30.0899 43.6041 28.5628 44.1274 26.6199C45.0667 23.1069 45.0667 15.7727 45.0667 15.7727C45.0667 15.7727 45.0667 8.43836 44.1274 4.92541V4.92541Z" fill="#FF0000"/>
<path fill-rule="evenodd" clip-rule="evenodd" d="M18.0312 22.5334L29.7388 15.7726L18.0312 9.01196V22.5334Z" fill="white"/>
<path fill-rule="evenodd" clip-rule="evenodd" d="M65.4134 28.6988C64.5243 28.0967 63.8862 27.1646 63.5135 25.8957C63.1406 24.6267 62.947 22.9419 62.947 20.834V17.9663C62.947 15.8371 63.162 14.1308 63.5922 12.8401C64.0224 11.5497 64.6964 10.6106 65.6068 10.0226C66.5173 9.43475 67.7147 9.13369 69.1987 9.13369C70.6613 9.13369 71.8299 9.43475 72.7116 10.037C73.5935 10.6391 74.2387 11.5784 74.6474 12.8545C75.0561 14.1308 75.2569 15.8371 75.2569 17.9591V20.8269C75.2569 22.9347 75.0561 24.6267 74.6617 25.9028C74.2675 27.1789 73.6224 28.1182 72.7261 28.706C71.837 29.2938 70.6254 29.5953 69.0982 29.5953C67.5354 29.6021 66.3023 29.3011 65.4134 28.6988V28.6988ZM70.4103 25.6017C70.6541 24.9565 70.7832 23.9025 70.7832 22.4473V16.2887C70.7832 14.8691 70.6613 13.8368 70.4103 13.1772C70.1667 12.5247 69.7292 12.195 69.1055 12.195C68.5034 12.195 68.0802 12.5247 67.8294 13.1772C67.5856 13.8296 67.4566 14.8691 67.4566 16.2887V22.4473C67.4566 23.9097 67.5713 24.9637 67.8079 25.6017C68.0445 26.247 68.4746 26.5695 69.0984 26.5695C69.7292 26.5695 70.1594 26.247 70.4103 25.6017V25.6017ZM133.859 20.8842V21.8809C133.859 23.1498 133.895 24.0961 133.974 24.7341C134.046 25.3652 134.203 25.8311 134.44 26.1181C134.677 26.4047 135.042 26.5553 135.537 26.5553C136.204 26.5553 136.662 26.2972 136.906 25.7809C137.15 25.2647 137.286 24.4044 137.308 23.2L141.143 23.4223C141.165 23.5942 141.172 23.8308 141.172 24.1319C141.172 25.9602 140.67 27.3223 139.673 28.2256C138.677 29.129 137.265 29.5806 135.437 29.5806C133.243 29.5806 131.708 28.8924 130.827 27.5159C129.945 26.1394 129.508 24.0172 129.508 21.1352V17.6867C129.508 14.7186 129.966 12.5605 130.877 11.1914C131.787 9.82917 133.35 9.14796 135.566 9.14796C137.093 9.14796 138.261 9.42771 139.078 9.98683C139.896 10.546 140.469 11.4134 140.806 12.5964C141.136 13.7794 141.308 15.4141 141.308 17.4931V20.8772H133.859V20.8842ZM134.426 12.5677C134.203 12.8475 134.053 13.3062 133.974 13.9372C133.895 14.568 133.859 15.536 133.859 16.8192V18.2388H137.114V16.8192C137.114 15.5501 137.071 14.5895 136.985 13.9372C136.899 13.2847 136.741 12.8188 136.519 12.5535C136.297 12.2882 135.945 12.152 135.472 12.152C134.999 12.1448 134.648 12.2882 134.426 12.5677ZM54.5875 20.5114L49.5261 2.23672H53.9422L55.7132 10.5174C56.1648 12.5607 56.4946 14.2957 56.7097 15.7367H56.8386C56.9893 14.7042 57.319 12.9764 57.8354 10.546L59.6706 2.22949H64.0869L58.9681 20.5114V29.2796H54.5875V20.5114ZM89.6171 9.52089V29.2724H86.1399L85.7527 26.8563H85.6595C84.7131 28.6845 83.2937 29.5951 81.4081 29.5951C80.0962 29.5951 79.1282 29.1649 78.5046 28.3045C77.8808 27.4442 77.5725 26.1036 77.5725 24.2754V9.52089H82.0176V24.0244C82.0176 24.9063 82.1108 25.5373 82.3044 25.91C82.498 26.2828 82.8205 26.4764 83.2722 26.4764C83.6594 26.4764 84.0321 26.3615 84.3834 26.1251C84.7346 25.8885 84.9999 25.5873 85.172 25.2218V9.52071L89.6171 9.52089ZM112.43 9.52089V29.2724H108.953L108.566 26.8563H108.472C107.526 28.6845 106.107 29.5951 104.221 29.5951C102.909 29.5951 101.941 29.1649 101.318 28.3045C100.694 27.4442 100.385 26.1036 100.385 24.2754V9.52089H104.83V24.0244C104.83 24.9063 104.924 25.5373 105.117 25.91C105.311 26.2828 105.633 26.4764 106.085 26.4764C106.472 26.4764 106.845 26.3615 107.196 26.1251C107.548 25.8885 107.813 25.5873 107.985 25.2218V9.52071L112.43 9.52089Z" fill="white"/>
<path fill-rule="evenodd" clip-rule="evenodd" d="M101.704 5.81438H97.2881V29.2724H92.9363V5.81438H88.52V2.23695H101.697V5.81438H101.704ZM127.148 12.6825C126.876 11.4351 126.446 10.5317 125.844 9.97261C125.242 9.4133 124.417 9.13374 123.363 9.13374C122.546 9.13374 121.786 9.3631 121.076 9.82922C120.366 10.2879 119.822 10.8974 119.434 11.6502H119.399V1.24023H115.111V29.2796H118.782L119.233 27.4085H119.327C119.671 28.0752 120.187 28.5986 120.875 28.9856C121.564 29.3728 122.324 29.5664 123.162 29.5664C124.668 29.5664 125.772 28.8709 126.482 27.4872C127.191 26.1037 127.543 23.9385 127.543 20.9919V17.8659C127.55 15.6578 127.414 13.93 127.148 12.6826V12.6825ZM123.069 20.7408C123.069 22.182 123.012 23.3075 122.89 24.1249C122.775 24.9422 122.575 25.5229 122.295 25.8671C122.015 26.2111 121.642 26.3832 121.169 26.3832C120.804 26.3832 120.467 26.2973 120.151 26.1251C119.843 25.953 119.585 25.695 119.391 25.3507V14.1308C119.542 13.593 119.8 13.1558 120.166 12.8118C120.531 12.4676 120.926 12.2954 121.356 12.2954C121.807 12.2954 122.159 12.4746 122.402 12.8258C122.646 13.1773 122.818 13.7794 122.919 14.611C123.012 15.4499 123.062 16.64 123.062 18.1885V20.7408H123.069Z" fill="white"/>
</svg>
